<?xml version="1.0" encoding="UTF-8" standalone="no"?>
<!-- Created with Inkscape (http://www.inkscape.org/) -->

<svg
   xmlns:dc="http://purl.org/dc/elements/1.1/"
   xmlns:cc="http://creativecommons.org/ns#"
   xmlns:rdf="http://www.w3.org/1999/02/22-rdf-syntax-ns#"
   xmlns:svg="http://www.w3.org/2000/svg"
   xmlns="http://www.w3.org/2000/svg"
   xmlns:xlink="http://www.w3.org/1999/xlink"
   xmlns:sodipodi="http://sodipodi.sourceforge.net/DTD/sodipodi-0.dtd"
   xmlns:inkscape="http://www.inkscape.org/namespaces/inkscape"
   width="1488.189"
   height="1052.3622"
   id="svg10067"
   version="1.1"
   inkscape:version="0.48.2 r9819"
   sodipodi:docname="system_map.svg"
   inkscape:export-filename="../03.design_system_map.png"
   inkscape:export-xdpi="200"
   inkscape:export-ydpi="200">
  <defs
     id="defs3">
    <marker
       inkscape:stockid="DotS"
       orient="auto"
       refY="0.0"
       refX="0.0"
       id="DotS"
       style="overflow:visible">
      <path
         id="path4185"
         d="M -2.5,-1.0 C -2.5,1.7600000 -4.7400000,4.0 -7.5,4.0 C -10.260000,4.0 -12.5,1.7600000 -12.5,-1.0 C -12.5,-3.7600000 -10.260000,-6.0 -7.5,-6.0 C -4.7400000,-6.0 -2.5,-3.7600000 -2.5,-1.0 z "
         style="fill-rule:evenodd;stroke:#000000;stroke-width:1.0pt;marker-start:none;marker-end:none"
         transform="scale(0.2) translate(7.4, 1)" />
    </marker>
    <marker
       inkscape:stockid="DiamondS"
       orient="auto"
       refY="0.0"
       refX="0.0"
       id="DiamondS"
       style="overflow:visible">
      <path
         id="path4203"
         d="M 0,-7.0710768 L -7.0710894,0 L 0,7.0710589 L 7.0710462,0 L 0,-7.0710768 z "
         style="fill-rule:evenodd;stroke:#000000;stroke-width:1.0pt;marker-start:none"
         transform="scale(0.2)" />
    </marker>
    <marker
       inkscape:stockid="TriangleOutS"
       orient="auto"
       refY="0.0"
       refX="0.0"
       id="TriangleOutS"
       style="overflow:visible">
      <path
         id="path4266"
         d="M 5.77,0.0 L -2.88,5.0 L -2.88,-5.0 L 5.77,0.0 z "
         style="fill-rule:evenodd;stroke:#000000;stroke-width:1.0pt;marker-start:none"
         transform="scale(0.2)" />
    </marker>
    <marker
       inkscape:stockid="TriangleOutM"
       orient="auto"
       refY="0.0"
       refX="0.0"
       id="TriangleOutM"
       style="overflow:visible">
      <path
         id="path4263"
         d="M 5.77,0.0 L -2.88,5.0 L -2.88,-5.0 L 5.77,0.0 z "
         style="fill-rule:evenodd;stroke:#000000;stroke-width:1.0pt;marker-start:none"
         transform="scale(0.4)" />
    </marker>
    <marker
       inkscape:stockid="Arrow2Lend"
       orient="auto"
       refY="0.0"
       refX="0.0"
       id="Arrow2Lend"
       style="overflow:visible;">
      <path
         id="path4138"
         style="font-size:12.0;fill-rule:evenodd;stroke-width:0.62500000;stroke-linejoin:round;"
         d="M 8.7185878,4.0337352 L -2.2072895,0.016013256 L 8.7185884,-4.0017078 C 6.9730900,-1.6296469 6.9831476,1.6157441 8.7185878,4.0337352 z "
         transform="scale(1.1) rotate(180) translate(1,0)" />
    </marker>
    <clipPath
       id="clipPath6952"
       clipPathUnits="userSpaceOnUse">
      <path
         inkscape:connector-curvature="0"
         id="path6954"
         d="m 4645.513,80.79 78.21,0 0,78.209 -78.21,0 0,-78.209 z" />
    </clipPath>
    <clipPath
       id="clipPath6936"
       clipPathUnits="userSpaceOnUse">
      <path
         inkscape:connector-curvature="0"
         id="path6938"
         d="m 4814.121,80.79 78.209,0 0,78.209 -78.209,0 0,-78.209 z" />
    </clipPath>
    <clipPath
       id="clipPath6920"
       clipPathUnits="userSpaceOnUse">
      <path
         inkscape:connector-curvature="0"
         id="path6922"
         d="m 4729.817,80.79 78.21,0 0,78.209 -78.21,0 0,-78.209 z" />
    </clipPath>
    <clipPath
       id="clipPath6904"
       clipPathUnits="userSpaceOnUse">
      <path
         inkscape:connector-curvature="0"
         id="path6906"
         d="m 4561.208,80.79 78.209,0 0,78.209 -78.209,0 0,-78.209 z" />
    </clipPath>
    <clipPath
       id="clipPath6888"
       clipPathUnits="userSpaceOnUse">
      <path
         inkscape:connector-curvature="0"
         id="path6890"
         d="m 4907.566,80.79 78.21,0 0,78.209 -78.21,0 0,-78.209 z" />
    </clipPath>
    <clipPath
       id="clipPath6102"
       clipPathUnits="userSpaceOnUse">
      <path
         inkscape:connector-curvature="0"
         id="path6104"
         d="m 4799.799,924.518 -54.288,-62.187 0,-197.037 242.624,0 0,259.224 -188.336,0 z" />
    </clipPath>
    <clipPath
       id="clipPath5382"
       clipPathUnits="userSpaceOnUse">
      <path
         inkscape:connector-curvature="0"
         id="path5384"
         d="m 1842.363,2006.469 2.975,-235.296 223.69,-19.173 0,254.469 -226.665,0 z" />
    </clipPath>
    <clipPath
       id="clipPath4662"
       clipPathUnits="userSpaceOnUse">
      <path
         inkscape:connector-curvature="0"
         id="path4664"
         d="m 2296,721.999 259.305,0 0,180.462 -259.305,40.331 0,-220.793 z" />
    </clipPath>
    <clipPath
       id="clipPath3942"
       clipPathUnits="userSpaceOnUse">
      <path
         inkscape:connector-curvature="0"
         id="path3944"
         d="m 861.998,2834.999 216.549,0 0,225.692 -216.549,0 0,-225.692 z" />
    </clipPath>
    <clipPath
       id="clipPath3222"
       clipPathUnits="userSpaceOnUse">
      <path
         inkscape:connector-curvature="0"
         id="path3224"
         d="m 1858,2801.999 203.39,0 0,235.529 -203.39,0 0,-235.529 z" />
    </clipPath>
    <clipPath
       id="clipPath2502"
       clipPathUnits="userSpaceOnUse">
      <path
         inkscape:connector-curvature="0"
         id="path2504"
         d="m 3834.849,2870.811 191.731,0 0,155.782 -191.731,0 0,-155.782 z" />
    </clipPath>
    <clipPath
       id="clipPath1782"
       clipPathUnits="userSpaceOnUse">
      <path
         inkscape:connector-curvature="0"
         id="path1784"
         d="m 3780.544,1810.399 254.959,0 0,198 -254.959,0 0,-198 z" />
    </clipPath>
    <clipPath
       id="clipPath1062"
       clipPathUnits="userSpaceOnUse">
      <path
         inkscape:connector-curvature="0"
         id="path1064"
         d="m 2826.455,2834.999 232.588,0 0,216.603 -232.588,0 0,-216.603 z" />
    </clipPath>
    <clipPath
       id="clipPath342"
       clipPathUnits="userSpaceOnUse">
      <path
         inkscape:connector-curvature="0"
         id="path344"
         d="m 4836.14,2817.905 173.549,0 0,209.572 -173.549,0 0,-209.572 z" />
    </clipPath>
  </defs>
  <sodipodi:namedview
     inkscape:document-units="mm"
     id="base"
     pagecolor="#ffffff"
     bordercolor="#666666"
     borderopacity="1.0"
     inkscape:pageopacity="1"
     inkscape:pageshadow="2"
     inkscape:zoom="0.45991771"
     inkscape:cx="481.00394"
     inkscape:cy="526.18109"
     inkscape:current-layer="layer1"
     showgrid="true"
     units="mm"
     inkscape:window-width="1280"
     inkscape:window-height="702"
     inkscape:window-x="0"
     inkscape:window-y="0"
     inkscape:window-maximized="1"
     showguides="false"
     inkscape:guide-bbox="true">
    <sodipodi:guide
       orientation="0,1"
       position="478.34646,974.40945"
       id="guide24376" />
    <sodipodi:guide
       orientation="1,0"
       position="35.433071,938.97638"
       id="guide24416" />
    <sodipodi:guide
       orientation="1,0"
       position="1452.7559,921.25984"
       id="guide24418" />
    <sodipodi:guide
       orientation="0,1"
       position="974.40945,106.29921"
       id="guide24420" />
    <sodipodi:guide
       orientation="0,1"
       position="389.76378,938.97638"
       id="guide24422" />
    <sodipodi:guide
       orientation="0,1"
       position="701.5748,1009.8425"
       id="guide24424" />
    <sodipodi:guide
       orientation="0,1"
       position="230.31496,921.25984"
       id="guide25257" />
  </sodipodi:namedview>
  <metadata
     id="metadata4">
    <rdf:RDF>
      <cc:Work
         rdf:about="">
        <dc:format>image/svg+xml</dc:format>
        <dc:type
           rdf:resource="http://purl.org/dc/dcmitype/StillImage" />
        <dc:title />
      </cc:Work>
    </rdf:RDF>
  </metadata>
  <g
     inkscape:label="Layout"
     inkscape:groupmode="layer"
     id="layer1"
     transform="translate(0,2.988066e-5)">
    <a
       id="a24212"
       xlink:href="http://creativecommons.org/licenses/by-sa/3.0/"
       xlink:title="CC BY-SA"
       transform="matrix(0.56208624,0,0,0.56208624,1028.2309,500.82271)">
      <text
         sodipodi:linespacing="125%"
         style="font-size:17.79086494px;font-style:normal;font-variant:normal;font-weight:300;font-stretch:normal;text-align:start;line-height:125%;writing-mode:lr-tb;text-anchor:start;font-family:TitilliumText25L;-inkscape-font-specification:TitilliumText25L Light"
         y="834.94757"
         x="-406.88306"
         id="text9963">
        <tspan
           sodipodi:role="line"
           id="tspan25394"
           x="-406.88306"
           y="834.94757"
           style="font-size:16.01177788px">This work is licensed under the Creative Commons Attribution-Share Alike 3.0 Unported License.</tspan>
        <tspan
           sodipodi:role="line"
           id="tspan25396"
           x="-406.88306"
           y="854.96228"
           style="font-size:16.01177788px">To view a copy of this license, visit http://creativecommons.org/licenses/by-sa/3.0/</tspan>
        <tspan
           sodipodi:role="line"
           id="tspan25398"
           x="-406.88306"
           y="874.97699"
           style="font-size:16.01177788px">or send a letter to Creative Commons, 171 Second Street, Suite 300, San Francisco, California, 94105, USA.</tspan>
      </text>
    </a>
    <g
       id="g25400"
       transform="matrix(0.83432244,0,0,0.83432244,242.1812,154.35087)">
      <g
         transform="matrix(0.7026078,0,0,-0.7026078,-2047.1135,1073.3221)"
         id="g9971">
        <g
           id="g9973"
           clip-path="url(#clipPath6888)">
          <g
             id="g9975"
             transform="translate(4946.6187,152.9518)">
            <path
               d="m 0,0 c 9.147,0 16.861,-3.14 23.14,-9.419 6.317,-6.318 9.477,-14.032 9.477,-23.14 0,-9.148 -3.101,-16.764 -9.303,-22.849 -6.59,-6.474 -14.36,-9.71 -23.314,-9.71 -8.8,0 -16.435,3.198 -22.907,9.594 -6.396,6.395 -9.594,14.05 -9.594,22.965 0,8.915 3.198,16.628 9.594,23.14 C -16.628,-3.14 -8.993,0 0,0 m 0.116,-5.872 c -7.404,0 -13.663,-2.598 -18.779,-7.791 -5.312,-5.427 -7.965,-11.725 -7.965,-18.896 0,-7.21 2.634,-13.451 7.906,-18.721 5.271,-5.272 11.551,-7.907 18.838,-7.907 7.248,0 13.566,2.654 18.954,7.965 5.117,4.922 7.675,11.143 7.675,18.663 0,7.403 -2.598,13.702 -7.791,18.896 C 13.759,-8.47 7.48,-5.872 0.116,-5.872 m 8.721,-18.606 0,-13.314 -3.721,0 0,-15.814 -10.116,0 0,15.814 -3.722,0 0,13.314 c 0,0.582 0.204,1.076 0.611,1.483 0.407,0.407 0.902,0.611 1.483,0.611 l 13.372,0 c 0.543,0 1.027,-0.204 1.454,-0.611 0.426,-0.407 0.639,-0.901 0.639,-1.483 m -13.314,8.373 c 0,3.061 1.512,4.593 4.535,4.593 3.023,0 4.535,-1.532 4.535,-4.593 0,-3.023 -1.512,-4.535 -4.535,-4.535 -3.023,0 -4.535,1.512 -4.535,4.535"
               style="fill:#000000;fill-opacity:1;fill-rule:nonzero;stroke:none"
               id="path9977"
               inkscape:connector-curvature="0" />
          </g>
          <g
             id="g9979"
             transform="translate(4896.9019,80.7901)">
            <path
               d="m 0,0 -31.995,0 m 42.66,-10.665 0,-31.995 M 0,78.21 l -31.995,0 m 42.66,10.665 0,31.995 m 88.875,-42.66 31.995,0 m -42.66,10.665 0,31.995 M 99.54,0 131.535,0 m -42.66,-10.665 0,-31.995"
               style="fill:none;stroke:#000000;stroke-width:0.59200001;stroke-linecap:butt;stroke-linejoin:miter;stroke-miterlimit:4;stroke-opacity:1;stroke-dasharray:none"
               id="path9981"
               inkscape:connector-curvature="0" />
          </g>
        </g>
      </g>
      <g
         transform="matrix(0.7026078,0,0,-0.7026078,-2047.1135,1073.3221)"
         id="g9983">
        <g
           id="g9985"
           clip-path="url(#clipPath6904)">
          <g
             id="g9987"
             transform="translate(4600.2598,152.9518)">
            <path
               d="m 0,0 c 9.108,0 16.861,-3.179 23.256,-9.535 3.061,-3.062 5.387,-6.561 6.977,-10.495 1.589,-3.934 2.384,-8.11 2.384,-12.529 0,-4.458 -0.785,-8.634 -2.355,-12.529 -1.57,-3.896 -3.887,-7.336 -6.948,-10.32 -3.178,-3.14 -6.783,-5.544 -10.814,-7.209 -4.031,-1.667 -8.198,-2.501 -12.5,-2.501 -4.303,0 -8.421,0.823 -12.355,2.472 -3.935,1.646 -7.462,4.03 -10.582,7.151 -3.121,3.119 -5.494,6.637 -7.122,10.552 -1.628,3.915 -2.442,8.043 -2.442,12.384 0,4.302 0.823,8.44 2.472,12.413 1.646,3.973 4.04,7.529 7.179,10.669 C -16.648,-3.16 -9.032,0 0,0 m 0.116,-5.872 c -7.442,0 -13.702,-2.598 -18.779,-7.791 -2.558,-2.598 -4.526,-5.515 -5.901,-8.751 -1.377,-3.236 -2.064,-6.618 -2.064,-10.145 0,-3.489 0.687,-6.851 2.064,-10.087 1.375,-3.237 3.343,-6.125 5.901,-8.663 2.558,-2.54 5.445,-4.477 8.663,-5.814 3.216,-1.338 6.588,-2.006 10.116,-2.006 3.488,0 6.869,0.678 10.146,2.035 3.275,1.356 6.23,3.314 8.866,5.872 5.078,4.961 7.617,11.182 7.617,18.663 0,3.605 -0.66,7.015 -1.977,10.233 -1.318,3.217 -3.237,6.084 -5.756,8.605 -5.233,5.232 -11.532,7.849 -18.896,7.849 m -0.407,-21.28 -4.36,-2.267 c -0.466,0.968 -1.038,1.647 -1.716,2.035 -0.678,0.387 -1.308,0.581 -1.889,0.581 -2.907,0 -4.361,-1.919 -4.361,-5.756 0,-1.744 0.368,-3.14 1.105,-4.186 0.736,-1.047 1.821,-1.57 3.256,-1.57 1.899,0 3.236,0.93 4.012,2.791 l 4.012,-2.035 c -0.853,-1.59 -2.036,-2.84 -3.548,-3.75 -1.511,-0.911 -3.178,-1.367 -4.999,-1.367 -2.908,0 -5.253,0.892 -7.035,2.675 -1.783,1.783 -2.675,4.264 -2.675,7.442 0,3.101 0.902,5.562 2.704,7.384 1.802,1.822 4.078,2.732 6.831,2.732 4.031,0 6.919,-1.569 8.663,-4.709 m 18.779,0 -4.301,-2.267 c -0.466,0.968 -1.038,1.647 -1.716,2.035 -0.679,0.387 -1.328,0.581 -1.948,0.581 -2.907,0 -4.36,-1.919 -4.36,-5.756 0,-1.744 0.368,-3.14 1.104,-4.186 0.736,-1.047 1.822,-1.57 3.256,-1.57 1.899,0 3.236,0.93 4.012,2.791 l 4.069,-2.035 c -0.892,-1.59 -2.092,-2.84 -3.604,-3.75 -1.511,-0.911 -3.159,-1.367 -4.942,-1.367 -2.946,0 -5.301,0.892 -7.064,2.675 -1.764,1.783 -2.645,4.264 -2.645,7.442 0,3.101 0.901,5.562 2.703,7.384 1.802,1.822 4.079,2.732 6.832,2.732 4.031,0 6.899,-1.569 8.604,-4.709"
               style="fill:#000000;fill-opacity:1;fill-rule:nonzero;stroke:none"
               id="path9989"
               inkscape:connector-curvature="0" />
          </g>
          <g
             id="g9991"
             transform="translate(4550.543,80.7901)">
            <path
               d="m 0,0 -31.995,0 m 42.66,-10.665 0,-31.995 M 0,78.21 l -31.995,0 m 42.66,10.665 0,31.995 m 88.875,-42.66 31.995,0 m -42.66,10.665 0,31.995 M 99.54,0 131.535,0 m -42.66,-10.665 0,-31.995"
               style="fill:none;stroke:#000000;stroke-width:0.59200001;stroke-linecap:butt;stroke-linejoin:miter;stroke-miterlimit:4;stroke-opacity:1;stroke-dasharray:none"
               id="path9993"
               inkscape:connector-curvature="0" />
          </g>
        </g>
      </g>
      <g
         transform="matrix(0.7026078,0,0,-0.7026078,-2047.1135,1073.3221)"
         id="g9995">
        <g
           id="g9997"
           clip-path="url(#clipPath6920)">
          <g
             id="g9999"
             transform="translate(4768.8687,152.8934)">
            <path
               d="m 0,0 c 9.108,0 16.821,-3.159 23.14,-9.477 6.317,-6.279 9.477,-13.974 9.477,-23.082 0,-9.109 -3.101,-16.744 -9.303,-22.907 -6.55,-6.435 -14.322,-9.651 -23.314,-9.651 -8.8,0 -16.435,3.197 -22.907,9.593 -6.396,6.395 -9.594,14.05 -9.594,22.965 0,8.876 3.198,16.57 9.594,23.082 C -16.59,-3.159 -8.954,0 0,0 m 0.116,-5.872 c -7.404,0 -13.663,-2.616 -18.779,-7.849 -5.312,-5.388 -7.965,-11.667 -7.965,-18.838 0,-7.248 2.634,-13.488 7.906,-18.721 5.271,-5.272 11.551,-7.907 18.838,-7.907 7.248,0 13.566,2.654 18.954,7.965 5.117,4.961 7.675,11.183 7.675,18.663 0,7.443 -2.598,13.722 -7.791,18.838 -5.156,5.233 -11.435,7.849 -18.838,7.849 m -14.535,-22.093 c 0.62,3.991 2.228,7.083 4.826,9.273 2.596,2.189 5.756,3.285 9.477,3.285 5.116,0 9.186,-1.648 12.209,-4.942 3.023,-3.295 4.535,-7.52 4.535,-12.675 0,-5 -1.57,-9.157 -4.709,-12.471 -3.14,-3.314 -7.21,-4.971 -12.21,-4.971 -3.683,0 -6.861,1.105 -9.535,3.314 -2.674,2.209 -4.283,5.349 -4.826,9.419 l 8.198,0 c 0.194,-3.954 2.577,-5.93 7.152,-5.93 2.286,0 4.128,0.988 5.523,2.965 1.395,1.977 2.093,4.612 2.093,7.907 0,3.449 -0.639,6.075 -1.918,7.878 -1.28,1.802 -3.121,2.704 -5.524,2.704 -4.341,0 -6.783,-1.919 -7.326,-5.756 l 2.384,0 -6.454,-6.454 -6.453,6.454 2.558,0 z"
               style="fill:#000000;fill-opacity:1;fill-rule:nonzero;stroke:none"
               id="path10001"
               inkscape:connector-curvature="0" />
          </g>
          <g
             id="g10003"
             transform="translate(4719.1519,80.7901)">
            <path
               d="m 0,0 -31.995,0 m 42.66,-10.665 0,-31.995 M 0,78.21 l -31.995,0 m 42.66,10.665 0,31.995 m 88.875,-42.66 31.995,0 m -42.66,10.665 0,31.995 M 99.54,0 131.535,0 m -42.66,-10.665 0,-31.995"
               style="fill:none;stroke:#000000;stroke-width:0.59200001;stroke-linecap:butt;stroke-linejoin:miter;stroke-miterlimit:4;stroke-opacity:1;stroke-dasharray:none"
               id="path10005"
               inkscape:connector-curvature="0" />
          </g>
        </g>
      </g>
      <g
         transform="matrix(0.7026078,0,0,-0.7026078,-2047.1135,1073.3221)"
         id="g10007">
        <g
           id="g10009"
           clip-path="url(#clipPath6936)">
          <g
             id="g10011"
             transform="translate(4853.1729,152.8934)">
            <path
               d="m 0,0 c 9.108,0 16.821,-3.159 23.14,-9.477 6.317,-6.279 9.477,-13.974 9.477,-23.082 0,-9.109 -3.101,-16.744 -9.303,-22.907 -6.55,-6.435 -14.322,-9.651 -23.314,-9.651 -8.8,0 -16.435,3.197 -22.907,9.593 -6.396,6.395 -9.594,14.05 -9.594,22.965 0,8.876 3.198,16.57 9.594,23.082 C -16.59,-3.159 -8.954,0 0,0 m 0.116,-5.872 c -7.404,0 -13.663,-2.616 -18.779,-7.849 -5.312,-5.388 -7.965,-11.667 -7.965,-18.838 0,-7.248 2.634,-13.488 7.906,-18.721 5.271,-5.272 11.551,-7.907 18.838,-7.907 7.248,0 13.566,2.654 18.954,7.965 5.117,4.961 7.675,11.183 7.675,18.663 0,7.443 -2.598,13.722 -7.791,18.838 -5.156,5.233 -11.435,7.849 -18.838,7.849 m 21.221,-27.268 0.64,-0.291 0,-9.186 -0.581,-0.291 -7.907,-3.372 -0.349,-0.116 -0.407,0.116 -17.036,7.035 -0.581,0.233 -8.43,-3.489 -8.315,3.605 0,8.372 7.792,3.256 -0.059,0.058 0,9.187 8.838,3.895 19.942,-8.256 0,-8.082 6.453,-2.674 z m -9.244,-10.698 0,5.756 -0.058,0 0,0.233 -14.942,6.105 0,-5.931 14.942,-6.163 0,0.058 0.058,-0.058 z m 0.988,7.558 5.233,2.152 -4.825,2.035 -5.117,-2.152 4.709,-2.035 z m 6.861,-5 0,5.64 -5.814,-2.442 0,-5.698 5.814,2.5 z"
               style="fill:#000000;fill-opacity:1;fill-rule:nonzero;stroke:none"
               id="path10013"
               inkscape:connector-curvature="0" />
          </g>
          <g
             id="g10015"
             transform="translate(4803.4561,80.7901)">
            <path
               d="m 0,0 -31.995,0 m 42.66,-10.665 0,-31.995 M 0,78.21 l -31.995,0 m 42.66,10.665 0,31.995 m 88.875,-42.66 31.995,0 m -42.66,10.665 0,31.995 M 99.54,0 131.535,0 m -42.66,-10.665 0,-31.995"
               style="fill:none;stroke:#000000;stroke-width:0.59200001;stroke-linecap:butt;stroke-linejoin:miter;stroke-miterlimit:4;stroke-opacity:1;stroke-dasharray:none"
               id="path10017"
               inkscape:connector-curvature="0" />
          </g>
        </g>
      </g>
      <g
         transform="matrix(0.7026078,0,0,-0.7026078,-2047.1135,1073.3221)"
         id="g10019">
        <g
           id="g10021"
           clip-path="url(#clipPath6952)">
          <g
             id="g10023"
             transform="translate(4684.5645,152.8934)">
            <path
               d="m 0,0 c 9.108,0 16.821,-3.159 23.14,-9.477 6.317,-6.279 9.477,-13.974 9.477,-23.082 0,-9.109 -3.101,-16.744 -9.303,-22.907 -6.55,-6.435 -14.322,-9.651 -23.314,-9.651 -8.8,0 -16.435,3.197 -22.907,9.593 -6.396,6.395 -9.594,14.05 -9.594,22.965 0,8.876 3.198,16.57 9.594,23.082 C -16.59,-3.159 -8.954,0 0,0 m 0.116,-5.872 c -7.404,0 -13.663,-2.616 -18.779,-7.849 -5.312,-5.388 -7.965,-11.667 -7.965,-18.838 0,-7.248 2.634,-13.488 7.906,-18.721 5.271,-5.272 11.551,-7.907 18.838,-7.907 7.248,0 13.566,2.654 18.954,7.965 5.117,4.961 7.675,11.183 7.675,18.663 0,7.443 -2.598,13.722 -7.791,18.838 -5.156,5.233 -11.435,7.849 -18.838,7.849 m 13.256,-17.384 c 0.503,0 0.931,-0.174 1.279,-0.523 0.349,-0.349 0.524,-0.776 0.524,-1.28 l 0,-23.954 c 0,-0.504 -0.175,-0.929 -0.524,-1.278 -0.348,-0.349 -0.776,-0.524 -1.279,-0.524 l -17.732,0 c -0.505,0 -0.931,0.175 -1.28,0.524 -0.349,0.349 -0.523,0.774 -0.523,1.278 l 0,7.094 -7.093,0 c -0.505,0 -0.931,0.174 -1.279,0.523 -0.349,0.349 -0.524,0.775 -0.524,1.279 l 0,23.954 c 0,0.465 0.155,0.862 0.466,1.192 0.309,0.329 0.697,0.532 1.162,0.61 l 0.175,0 17.733,0 c 0.503,0 0.93,-0.174 1.279,-0.523 0.349,-0.349 0.523,-0.776 0.523,-1.279 l 0,-7.093 7.093,0 z m -24.884,-15.116 5.349,0 0,13.313 c 0,0.466 0.155,0.863 0.465,1.192 0.31,0.329 0.678,0.533 1.105,0.611 l 0.233,0 7.093,0 0,5.291 -14.245,0 0,-20.407 z m 23.14,11.569 -14.245,0 0,-20.408 14.245,0 0,20.408 z"
               style="fill:#000000;fill-opacity:1;fill-rule:nonzero;stroke:none"
               id="path10025"
               inkscape:connector-curvature="0" />
          </g>
          <g
             id="g10027"
             transform="translate(4634.8477,80.7901)">
            <path
               d="m 0,0 -31.995,0 m 42.66,-10.665 0,-31.995 M 0,78.21 l -31.995,0 m 42.66,10.665 0,31.995 m 88.875,-42.66 31.995,0 m -42.66,10.665 0,31.995 M 99.54,0 131.535,0 m -42.66,-10.665 0,-31.995"
               style="fill:none;stroke:#000000;stroke-width:0.59200001;stroke-linecap:butt;stroke-linejoin:miter;stroke-miterlimit:4;stroke-opacity:1;stroke-dasharray:none"
               id="path10029"
               inkscape:connector-curvature="0" />
          </g>
        </g>
      </g>
    </g>
    <text
       xml:space="preserve"
       style="font-size:40px;font-style:normal;font-variant:normal;font-weight:600;font-stretch:normal;text-align:start;line-height:125%;letter-spacing:0px;word-spacing:0px;writing-mode:lr-tb;text-anchor:start;fill:#000000;fill-opacity:1;stroke:none;font-family:TitilliumText25L;-inkscape-font-specification:TitilliumText25L Semi-Bold"
       x="494.02298"
       y="77.952705"
       id="text24378"
       sodipodi:linespacing="125%"><tspan
         sodipodi:role="line"
         id="tspan24380"
         x="494.02298"
         y="77.952705">System Map</tspan></text>
    <rect
       style="fill:#f6f6f6;fill-opacity:1;stroke:#000000;stroke-width:1.79080713;stroke-linejoin:round;stroke-miterlimit:4;stroke-opacity:1;stroke-dasharray:none;stroke-dashoffset:0"
       id="rect25259"
       width="1417.3228"
       height="832.67719"
       x="35.433071"
       y="113.38577" />
    <text
       xml:space="preserve"
       style="font-size:14px;font-style:normal;font-variant:normal;font-weight:600;font-stretch:normal;text-align:start;line-height:125%;letter-spacing:0px;word-spacing:0px;writing-mode:lr-tb;text-anchor:start;fill:#000000;fill-opacity:1;stroke:none;font-family:TitilliumText25L;-inkscape-font-specification:TitilliumText25L Semi-Bold"
       x="35.433071"
       y="1008.9291"
       id="text25261"
       sodipodi:linespacing="125%"><tspan
         sodipodi:role="line"
         id="tspan25263"
         x="35.433071"
         y="1008.9291">Designed by:</tspan></text>
    <text
       sodipodi:linespacing="125%"
       id="text25265"
       y="973.49591"
       x="36.763069"
       style="font-size:14px;font-style:normal;font-variant:normal;font-weight:600;font-stretch:normal;text-align:start;line-height:125%;letter-spacing:0px;word-spacing:0px;writing-mode:lr-tb;text-anchor:start;fill:#000000;fill-opacity:1;stroke:none;font-family:TitilliumText25L;-inkscape-font-specification:TitilliumText25L Semi-Bold"
       xml:space="preserve"><tspan
         y="973.49591"
         x="36.763069"
         id="tspan25267"
         sodipodi:role="line">Project:</tspan></text>
    <text
       xml:space="preserve"
       style="font-size:14px;font-style:normal;font-variant:normal;font-weight:600;font-stretch:normal;text-align:start;line-height:125%;letter-spacing:0px;word-spacing:0px;writing-mode:lr-tb;text-anchor:start;fill:#000000;fill-opacity:1;stroke:none;font-family:TitilliumText25L;-inkscape-font-specification:TitilliumText25L Semi-Bold"
       x="407.48032"
       y="973.49591"
       id="text25269"
       sodipodi:linespacing="125%"><tspan
         sodipodi:role="line"
         id="tspan25271"
         x="407.48032"
         y="973.49591">Link:</tspan></text>
    <text
       sodipodi:linespacing="125%"
       id="text25273"
       y="1008.9291"
       x="406.67712"
       style="font-size:14px;font-style:normal;font-variant:normal;font-weight:600;font-stretch:normal;text-align:start;line-height:125%;letter-spacing:0px;word-spacing:0px;writing-mode:lr-tb;text-anchor:start;fill:#000000;fill-opacity:1;stroke:none;font-family:TitilliumText25L;-inkscape-font-specification:TitilliumText25L Semi-Bold"
       xml:space="preserve"><tspan
         y="1008.9291"
         x="406.67712"
         id="tspan25275"
         sodipodi:role="line">Designed for:</tspan></text>
    <path
       style="fill:none;stroke:#cfcfcf;stroke-width:1.41266513;stroke-linecap:butt;stroke-linejoin:miter;stroke-miterlimit:4;stroke-opacity:1;stroke-dasharray:1.41266519, 4.2379956;stroke-dashoffset:0"
       d="m 90.619013,973.496 c 246.404037,0 299.144767,0 299.144767,0"
       id="path25277"
       inkscape:connector-curvature="0"
       sodipodi:nodetypes="cc" />
    <path
       style="fill:none;stroke:#cfcfcf;stroke-width:1.50266027;stroke-linecap:butt;stroke-linejoin:miter;stroke-miterlimit:4;stroke-opacity:1;stroke-dasharray:1.50266029, 4.50798088;stroke-dashoffset:0"
       d="m 442.86516,973.496 c 298.71304,0 318.94586,0 318.94586,0"
       id="path25279"
       inkscape:connector-curvature="0"
       sodipodi:nodetypes="cc" />
    <path
       inkscape:connector-curvature="0"
       id="path25281"
       d="m 121.69116,1008.9293 c 232.33346,0 268.07262,0 268.07262,0"
       style="fill:none;stroke:#cfcfcf;stroke-width:1.3717382;stroke-linecap:butt;stroke-linejoin:miter;stroke-miterlimit:4;stroke-opacity:1;stroke-dasharray:1.37173832, 4.11521499;stroke-dashoffset:0"
       sodipodi:nodetypes="cc" />
    <path
       sodipodi:nodetypes="cc"
       style="fill:none;stroke:#cfcfcf;stroke-width:1.3717382;stroke-linecap:butt;stroke-linejoin:miter;stroke-miterlimit:4;stroke-opacity:1;stroke-dasharray:1.37173832, 4.11521499;stroke-dashoffset:0"
       d="m 495.23917,1008.9293 c 232.33346,0 267.92856,0 267.92856,0"
       id="path25301"
       inkscape:connector-curvature="0" />
    <a
       transform="matrix(0.56208624,0,0,0.56208624,1028.2309,540.82271)"
       xlink:title="CC BY-SA"
       xlink:href="http://creativecommons.org/licenses/by-sa/3.0/"
       id="a3133">
      <a
         id="a3150"
         xlink:href="http://www.mepss.nl/index.php?p=tool&amp;l4=W21"
         xlink:title="http://www.mepss.nl/index.php?p=tool&amp;l4=W21">
        <text
           sodipodi:linespacing="125%"
           style="font-size:16.01177784px;font-style:normal;font-variant:normal;font-weight:300;font-stretch:normal;text-align:start;line-height:125%;writing-mode:lr;text-anchor:start;font-family:TitilliumText25L;-inkscape-font-specification:TitilliumText25L Light"
           y="834.94757"
           x="-406.88306"
           id="text3135">
          <tspan
             id="tspan3148"
             sodipodi:role="line">Original development of the System Map: http://www.mepss.nl/index.php?p=tool&amp;l4=W21</tspan>
        </text>
      </a>
    </a>
    <text
       xml:space="preserve"
       style="font-size:15px;font-style:normal;font-variant:normal;font-weight:800;font-stretch:normal;text-align:start;line-height:125%;letter-spacing:0px;word-spacing:0px;writing-mode:lr-tb;text-anchor:start;fill:#000000;fill-opacity:1;stroke:none;font-family:TitilliumText25L;-inkscape-font-specification:TitilliumText25L Ultra-Bold"
       x="1019.8425"
       y="241.40152"
       id="text4062"
       sodipodi:linespacing="125%"><tspan
         sodipodi:role="line"
         id="tspan4064"
         x="1019.8425"
         y="241.40152">Boundaries of the Activity</tspan></text>
    <g
       style="display:inline"
       id="g4792"
       transform="translate(3.3333612e-7,-6.0000173)">
      <g
         style="font-size:20px;font-style:normal;font-variant:normal;font-weight:600;font-stretch:normal;text-align:start;line-height:125%;letter-spacing:0px;word-spacing:0px;writing-mode:lr-tb;text-anchor:start;fill:#000000;fill-opacity:1;stroke:none;font-family:TitilliumText25L;-inkscape-font-specification:TitilliumText25L Semi-Bold"
         id="text25202">
        <path
           inkscape:connector-curvature="0"
           d="m 322.29917,70.532705 c -3.12,0 -4.92,1.700006 -4.92,6.98 0,5.059995 1.82,6.66 4.92,6.66 3.11999,0 4.94,-1.620005 4.94,-6.66 0,-5.279994 -1.78001,-6.98 -4.94,-6.98 m 0.02,1.86 c 1.99999,0 2.84,1.120004 2.84,5.12 0,3.839997 -0.92001,4.8 -2.84,4.8 -1.92,0 -2.86,-0.960003 -2.86,-4.78 0,-4.039996 0.88,-5.14 2.86,-5.14"
           id="path5851" />
        <path
           inkscape:connector-curvature="0"
           d="m 328.9251,83.952705 2.06,0 0,-2.64 -2.06,0 0,2.64"
           id="path5853" />
        <path
           inkscape:connector-curvature="0"
           d="m 333.62604,73.572705 0.9,1.54 3.2,-2.12 0,10.96 1.94,0 0,-13.2 -1.82,0 -4.22,2.82"
           id="path5855" />
      </g>
      <g
         style="font-size:40px;font-style:normal;font-variant:normal;font-weight:normal;font-stretch:normal;line-height:125%;letter-spacing:0px;word-spacing:0px;fill:#000000;fill-opacity:1;stroke:none;font-family:TitilliumText14L;-inkscape-font-specification:TitilliumText14L"
         id="text3346">
        <path
           inkscape:connector-curvature="0"
           d="m 42.457666,80.80447 c 0.906656,-0.666663 1.399989,-1.559995 1.48,-2.68 0.05332,-0.533327 -0.01334,-1.053327 -0.2,-1.56 -0.186677,-0.506659 -0.466677,-0.946658 -0.84,-1.32 l -6.4,-6.56 c -0.613336,-0.613318 -1.066669,-1.333317 -1.36,-2.16 -0.293335,-0.826648 -0.400002,-1.666648 -0.32,-2.52 0.05333,-0.879979 0.293331,-1.693312 0.72,-2.44 0.426664,-0.77331 0.986663,-1.426643 1.68,-1.96 0.693328,-0.533309 1.466661,-0.893308 2.32,-1.08 0.853326,-0.213308 1.706658,-0.226641 2.56,-0.04 0.853323,0.186692 1.626656,0.533358 2.32,1.04 0.693321,0.480024 1.266654,1.10669 1.72,1.88 0.186653,0.293356 0.226653,0.613355 0.12,0.96 -0.08001,0.346688 -0.280013,0.613354 -0.6,0.8 -0.293346,0.186687 -0.613346,0.226687 -0.96,0.12 -0.346678,-0.106646 -0.600011,-0.306646 -0.76,-0.6 -0.533344,-0.906645 -1.32001,-1.466644 -2.36,-1.68 -1.040008,-0.21331 -1.986673,2.3e-5 -2.84,0.64 -0.826672,0.613355 -1.280005,1.453354 -1.36,2.52 -0.08,1.040019 0.239995,1.946684 0.96,2.72 l 6.4,6.6 c 0.613321,0.64001 1.066654,1.386676 1.36,2.24 0.319986,0.826674 0.45332,1.69334 0.4,2.6 -0.08001,0.906671 -0.333347,1.760004 -0.76,2.56 -0.426679,0.773336 -1.000012,1.426668 -1.72,1.96 -0.72001,0.533334 -1.52001,0.906667 -2.4,1.12 -0.880008,0.213333 -1.760007,0.226666 -2.64,0.04 -0.880005,-0.186667 -1.693338,-0.533333 -2.44,-1.04 -0.720003,-0.533332 -1.306669,-1.186665 -1.76,-1.96 -0.160002,-0.319997 -0.200002,-0.639996 -0.12,-0.96 0.106665,-0.346662 0.306665,-0.613329 0.6,-0.8 0.293331,-0.186662 0.61333,-0.226662 0.96,-0.12 0.346663,0.08 0.613329,0.280004 0.8,0.6 0.266662,0.453337 0.613329,0.840003 1.04,1.16 0.426661,0.293336 0.906661,0.493336 1.44,0.6 1.093326,0.213336 2.079991,-0.01333 2.96,-0.68"
           style="font-family:Miso;-inkscape-font-specification:Miso"
           id="path5858" />
        <path
           inkscape:connector-curvature="0"
           d="m 53.690166,83.64447 c -0.986671,-0.399999 -1.773337,-1.026665 -2.36,-1.88 -0.560003,-0.879997 -0.840002,-1.853329 -0.84,-2.92 l 0,-8 c -2e-6,-0.719986 0.133331,-1.386652 0.4,-2 0.266664,-0.639984 0.639997,-1.199984 1.12,-1.68 0.479996,-0.479983 1.026662,-0.853316 1.64,-1.12 0.639994,-0.266649 1.319993,-0.399982 2.04,-0.4 0.719992,1.8e-5 1.386658,0.133351 2,0.4 0.63999,0.266684 1.199989,0.640017 1.68,1.12 0.479988,0.480016 0.853321,1.040016 1.12,1.68 0.266654,0.613348 0.399987,1.280014 0.4,2 l 0,4 c -1.3e-5,0.346675 -0.120013,0.640008 -0.36,0.88 -0.213345,0.213341 -0.493345,0.320008 -0.84,0.32 l -6.8,0 0,2.8 c -5e-6,0.560004 0.146662,1.080004 0.44,1.56 0.319995,0.480003 0.746661,0.826669 1.28,1.04 0.533326,0.213336 1.066659,0.266669 1.6,0.16 0.559991,-0.106664 1.039991,-0.359997 1.44,-0.76 0.23999,-0.239997 0.51999,-0.359997 0.84,-0.36 0.346656,3e-6 0.639989,0.120003 0.88,0.36 0.239989,0.213336 0.359988,0.493336 0.36,0.84 -1.2e-5,0.320002 -0.120011,0.600002 -0.36,0.84 -0.746677,0.746667 -1.64001,1.226667 -2.68,1.44 -1.013341,0.186666 -2.01334,0.08 -3,-0.32 m 2,-15.6 c -0.77334,1.6e-5 -1.440006,0.280016 -2,0.84 -0.533338,0.533348 -0.800005,1.18668 -0.8,1.96 l 0,2.8 5.6,0 0,-2.8 c -1e-5,-0.77332 -0.28001,-1.426652 -0.84,-1.96 -0.533342,-0.559984 -1.186675,-0.839984 -1.96,-0.84"
           style="font-family:Miso;-inkscape-font-specification:Miso"
           id="path5860" />
        <path
           inkscape:connector-curvature="0"
           d="m 66.935791,84.04447 c -0.34667,0 -0.640003,-0.106667 -0.88,-0.32 -0.213336,-0.24 -0.320003,-0.533333 -0.32,-0.88 l 0,-15.84 c -3e-6,-0.346649 0.106664,-0.626649 0.32,-0.84 0.239997,-0.239982 0.53333,-0.359982 0.88,-0.36 l 4,0 c 0.906658,1.8e-5 1.773324,0.226685 2.6,0.68 0.293322,0.186684 0.479989,0.440017 0.56,0.76 0.07999,0.29335 0.03999,0.586683 -0.12,0.88 -0.160011,0.293349 -0.400011,0.493349 -0.72,0.6 -0.32001,0.08002 -0.626676,0.02668 -0.92,-0.16 -0.453342,-0.239984 -0.920008,-0.359984 -1.4,-0.36 l -2.8,0 0,14.64 c -5e-6,0.346667 -0.120005,0.64 -0.36,0.88 -0.213338,0.213333 -0.493338,0.32 -0.84,0.32"
           style="font-family:Miso;-inkscape-font-specification:Miso"
           id="path5862" />
        <path
           inkscape:connector-curvature="0"
           d="m 77.110166,67.20447 c -0.08,-0.319983 -0.04,-0.626649 0.12,-0.92 0.159998,-0.293315 0.399998,-0.493315 0.72,-0.6 0.293331,-0.07998 0.586664,-0.03998 0.88,0.12 0.29333,0.160018 0.49333,0.386684 0.6,0.68 0.426662,1.493349 0.866662,2.973348 1.32,4.44 0.373328,1.253345 0.759994,2.586677 1.16,4 0.42666,1.386674 0.813326,2.640006 1.16,3.76 0.319992,-1.119994 0.693325,-2.373326 1.12,-3.76 0.426658,-1.413323 0.826657,-2.746655 1.2,-4 0.453323,-1.466652 0.893323,-2.946651 1.32,-4.44 0.106656,-0.293316 0.306655,-0.519982 0.6,-0.68 0.293321,-0.159982 0.599988,-0.199982 0.92,-0.12 0.319987,0.106685 0.559987,0.306685 0.72,0.6 0.159987,0.293351 0.186653,0.600017 0.08,0.92 l -4.8,16 c -0.08001,0.24 -0.226675,0.44 -0.44,0.6 -0.213341,0.16 -0.453341,0.24 -0.72,0.24 -0.266674,0 -0.506674,-0.08 -0.72,-0.24 -0.21334,-0.16 -0.360006,-0.36 -0.44,-0.6 l -4.8,-16"
           style="font-family:Miso;-inkscape-font-specification:Miso"
           id="path5864" />
        <path
           inkscape:connector-curvature="0"
           d="m 94.435791,62.44447 c -0.453337,2.1e-5 -0.840003,-0.146645 -1.16,-0.44 -0.293336,-0.319978 -0.440002,-0.706644 -0.44,-1.16 -2e-6,-0.45331 0.146664,-0.826643 0.44,-1.12 0.319997,-0.319976 0.706663,-0.479975 1.16,-0.48 0.453329,2.5e-5 0.826662,0.160024 1.12,0.48 0.319995,0.293357 0.479994,0.66669 0.48,1.12 -6e-6,0.453356 -0.160005,0.840022 -0.48,1.16 -0.293338,0.293355 -0.666671,0.440021 -1.12,0.44 m 1.2,20.4 c -5e-6,0.346667 -0.120005,0.64 -0.36,0.88 -0.213338,0.213333 -0.493338,0.32 -0.84,0.32 -0.320004,0 -0.600003,-0.106667 -0.84,-0.32 -0.240003,-0.24 -0.360003,-0.533333 -0.36,-0.88 l 0,-16 c -3e-6,-0.346649 0.119997,-0.626649 0.36,-0.84 0.239997,-0.239982 0.519996,-0.359982 0.84,-0.36 0.346662,1.8e-5 0.626662,0.120018 0.84,0.36 0.239995,0.213351 0.359995,0.493351 0.36,0.84 l 0,16"
           style="font-family:Miso;-inkscape-font-specification:Miso"
           id="path5866" />
        <path
           inkscape:connector-curvature="0"
           d="m 103.92454,83.64447 c -0.98667,-0.399999 -1.77334,-1.026665 -2.36,-1.88 -0.56,-0.879997 -0.84,-1.853329 -0.84,-2.92 l 0,-8 c 0,-1.066653 0.28,-2.026652 0.84,-2.88 0.58666,-0.879983 1.37333,-1.519983 2.36,-1.92 0.98666,-0.399982 1.98666,-0.493315 3,-0.28 1.01332,0.186685 1.90666,0.653351 2.68,1.4 0.21332,0.240016 0.31999,0.53335 0.32,0.88 -10e-6,0.320016 -0.10668,0.600015 -0.32,0.84 -0.24001,0.213348 -0.53334,0.320015 -0.88,0.32 -0.32001,1.5e-5 -0.60001,-0.106652 -0.84,-0.32 -0.40001,-0.426651 -0.88001,-0.693318 -1.44,-0.8 -0.53334,-0.106651 -1.06667,-0.05332 -1.6,0.16 -0.53334,0.213349 -0.96,0.560015 -1.28,1.04 -0.29334,0.480014 -0.44,1.000014 -0.44,1.56 l 0,8 c 0,0.560004 0.14666,1.080004 0.44,1.56 0.32,0.480003 0.74666,0.826669 1.28,1.04 0.53333,0.213336 1.06666,0.266669 1.6,0.16 0.55999,-0.106664 1.03999,-0.359997 1.44,-0.76 0.23999,-0.239997 0.51999,-0.359997 0.84,-0.36 0.34666,3e-6 0.63999,0.120003 0.88,0.36 0.21332,0.213336 0.31999,0.493336 0.32,0.84 -10e-6,0.320002 -0.10668,0.600002 -0.32,0.84 -0.77334,0.746667 -1.66668,1.226667 -2.68,1.44 -1.01334,0.186666 -2.01334,0.08 -3,-0.32"
           style="font-family:Miso;-inkscape-font-specification:Miso"
           id="path5868" />
        <path
           inkscape:connector-curvature="0"
           d="m 117.04954,83.64447 c -0.98667,-0.399999 -1.77334,-1.026665 -2.36,-1.88 -0.56,-0.879997 -0.84,-1.853329 -0.84,-2.92 l 0,-8 c 0,-0.719986 0.13333,-1.386652 0.4,-2 0.26666,-0.639984 0.64,-1.199984 1.12,-1.68 0.48,-0.479983 1.02666,-0.853316 1.64,-1.12 0.63999,-0.266649 1.31999,-0.399982 2.04,-0.4 0.71999,1.8e-5 1.38666,0.133351 2,0.4 0.63999,0.266684 1.19999,0.640017 1.68,1.12 0.47999,0.480016 0.85332,1.040016 1.12,1.68 0.26666,0.613348 0.39999,1.280014 0.4,2 l 0,4 c -1e-5,0.346675 -0.12001,0.640008 -0.36,0.88 -0.21334,0.213341 -0.49334,0.320008 -0.84,0.32 l -6.8,0 0,2.8 c 0,0.560004 0.14666,1.080004 0.44,1.56 0.32,0.480003 0.74666,0.826669 1.28,1.04 0.53333,0.213336 1.06666,0.266669 1.6,0.16 0.55999,-0.106664 1.03999,-0.359997 1.44,-0.76 0.23999,-0.239997 0.51999,-0.359997 0.84,-0.36 0.34666,3e-6 0.63999,0.120003 0.88,0.36 0.23999,0.213336 0.35999,0.493336 0.36,0.84 -1e-5,0.320002 -0.12001,0.600002 -0.36,0.84 -0.74668,0.746667 -1.64001,1.226667 -2.68,1.44 -1.01334,0.186666 -2.01334,0.08 -3,-0.32 m 2,-15.6 c -0.77334,1.6e-5 -1.44001,0.280016 -2,0.84 -0.53334,0.533348 -0.8,1.18668 -0.8,1.96 l 0,2.8 5.6,0 0,-2.8 c -1e-5,-0.77332 -0.28001,-1.426652 -0.84,-1.96 -0.53334,-0.559984 -1.18667,-0.839984 -1.96,-0.84"
           style="font-family:Miso;-inkscape-font-specification:Miso"
           id="path5870" />
        <path
           inkscape:connector-curvature="0"
           d="m 135.09517,58.52447 c 0.82665,2.5e-5 1.61332,0.160025 2.36,0.48 0.74665,0.320025 1.38665,0.760024 1.92,1.32 0.55998,0.533356 0.99998,1.173356 1.32,1.92 0.31998,0.746688 0.47998,1.533353 0.48,2.36 l 0,13.28 c -2e-5,0.853338 -0.16002,1.653338 -0.48,2.4 -0.32002,0.720003 -0.76002,1.360002 -1.32,1.92 -0.53335,0.533334 -1.17335,0.960001 -1.92,1.28 -0.74668,0.32 -1.53335,0.48 -2.36,0.48 l -4.8,0 c -0.37334,0 -0.68001,-0.12 -0.92,-0.36 -0.24001,-0.239999 -0.36001,-0.546666 -0.36,-0.92 l 0,-22.88 c -1e-5,-0.373309 0.11999,-0.679975 0.36,-0.92 0.23999,-0.239975 0.54666,-0.359975 0.92,-0.36 l 4.8,0 m 3.52,6.08 c -2e-5,-0.95998 -0.34668,-1.786646 -1.04,-2.48 -0.66668,-0.693311 -1.49335,-1.039977 -2.48,-1.04 l -3.52,0 0,20.32 3.52,0 c 0.98665,2e-6 1.81332,-0.333331 2.48,-1 0.69332,-0.693329 1.03998,-1.533328 1.04,-2.52 l 0,-13.28"
           style="font-family:Miso;-inkscape-font-specification:Miso"
           id="path5872" />
        <path
           inkscape:connector-curvature="0"
           d="m 149.00267,83.64447 c -0.98668,-0.399999 -1.77334,-1.026665 -2.36,-1.88 -0.56001,-0.879997 -0.84001,-1.853329 -0.84,-2.92 l 0,-8 c -1e-5,-0.719986 0.13333,-1.386652 0.4,-2 0.26666,-0.639984 0.63999,-1.199984 1.12,-1.68 0.47999,-0.479983 1.02666,-0.853316 1.64,-1.12 0.63999,-0.266649 1.31999,-0.399982 2.04,-0.4 0.71999,1.8e-5 1.38665,0.133351 2,0.4 0.63999,0.266684 1.19999,0.640017 1.68,1.12 0.47998,0.480016 0.85332,1.040016 1.12,1.68 0.26665,0.613348 0.39998,1.280014 0.4,2 l 0,4 c -2e-5,0.346675 -0.12002,0.640008 -0.36,0.88 -0.21335,0.213341 -0.49335,0.320008 -0.84,0.32 l -6.8,0 0,2.8 c -1e-5,0.560004 0.14666,1.080004 0.44,1.56 0.31999,0.480003 0.74666,0.826669 1.28,1.04 0.53332,0.213336 1.06666,0.266669 1.6,0.16 0.55999,-0.106664 1.03999,-0.359997 1.44,-0.76 0.23999,-0.239997 0.51999,-0.359997 0.84,-0.36 0.34665,3e-6 0.63999,0.120003 0.88,0.36 0.23998,0.213336 0.35998,0.493336 0.36,0.84 -2e-5,0.320002 -0.12002,0.600002 -0.36,0.84 -0.74668,0.746667 -1.64001,1.226667 -2.68,1.44 -1.01334,0.186666 -2.01334,0.08 -3,-0.32 m 2,-15.6 c -0.77334,1.6e-5 -1.44001,0.280016 -2,0.84 -0.53334,0.533348 -0.80001,1.18668 -0.8,1.96 l 0,2.8 5.6,0 0,-2.8 c -1e-5,-0.77332 -0.28001,-1.426652 -0.84,-1.96 -0.53335,-0.559984 -1.18668,-0.839984 -1.96,-0.84"
           style="font-family:Miso;-inkscape-font-specification:Miso"
           id="path5874" />
        <path
           inkscape:connector-curvature="0"
           d="m 166.32829,80.96447 c 0.61333,-0.559997 0.87999,-1.239996 0.8,-2.04 -0.0533,-0.799994 -0.41334,-1.439994 -1.08,-1.92 l -3.72,-2.64 c -0.61334,-0.426657 -1.09334,-0.946656 -1.44,-1.56 -0.34667,-0.639988 -0.54667,-1.319988 -0.6,-2.04 -0.0533,-0.746653 0.0533,-1.453319 0.32,-2.12 0.29333,-0.666651 0.70666,-1.239984 1.24,-1.72 0.53333,-0.506649 1.14666,-0.866649 1.84,-1.08 0.69333,-0.213315 1.39999,-0.266648 2.12,-0.16 0.71999,0.133351 1.37333,0.400018 1.96,0.8 0.61332,0.400017 1.10666,0.920016 1.48,1.56 0.15999,0.293349 0.19999,0.600015 0.12,0.92 -0.08,0.320015 -0.26668,0.560014 -0.56,0.72 -0.29334,0.160014 -0.60001,0.200014 -0.92,0.12 -0.32001,-0.07999 -0.56001,-0.266652 -0.72,-0.56 -0.37334,-0.639985 -0.94667,-1.026651 -1.72,-1.16 -0.77334,-0.133317 -1.44,0.06668 -2,0.6 -0.56,0.506681 -0.81334,1.146681 -0.76,1.92 0.0533,0.773346 0.4,1.373345 1.04,1.8 l 3.72,2.6 c 0.61332,0.453342 1.09332,1.000008 1.44,1.64 0.37332,0.640007 0.58666,1.346673 0.64,2.12 0.0533,0.773338 -0.0667,1.50667 -0.36,2.2 -0.26668,0.666669 -0.68001,1.253335 -1.24,1.76 -0.56001,0.533334 -1.20001,0.906667 -1.92,1.12 -0.69334,0.213333 -1.41334,0.266666 -2.16,0.16 -0.77334,-0.133333 -1.46667,-0.4 -2.08,-0.8 -0.61334,-0.426666 -1.10667,-0.973332 -1.48,-1.64 -0.16,-0.293331 -0.2,-0.599997 -0.12,-0.92 0.08,-0.319996 0.26667,-0.559996 0.56,-0.72 0.29333,-0.159996 0.6,-0.199996 0.92,-0.12 0.32,0.08 0.56,0.26667 0.72,0.56 0.42666,0.693336 1.04,1.106669 1.84,1.24 0.77333,0.133335 1.47999,-0.08 2.12,-0.64"
           style="font-family:Miso;-inkscape-font-specification:Miso"
           id="path5876" />
        <path
           inkscape:connector-curvature="0"
           d="m 175.37329,62.44447 c -0.45334,2.1e-5 -0.84,-0.146645 -1.16,-0.44 -0.29333,-0.319978 -0.44,-0.706644 -0.44,-1.16 0,-0.45331 0.14667,-0.826643 0.44,-1.12 0.32,-0.319976 0.70666,-0.479975 1.16,-0.48 0.45333,2.5e-5 0.82666,0.160024 1.12,0.48 0.32,0.293357 0.48,0.66669 0.48,1.12 0,0.453356 -0.16,0.840022 -0.48,1.16 -0.29334,0.293355 -0.66667,0.440021 -1.12,0.44 m 1.2,20.4 c 0,0.346667 -0.12,0.64 -0.36,0.88 -0.21334,0.213333 -0.49334,0.32 -0.84,0.32 -0.32,0 -0.6,-0.106667 -0.84,-0.32 -0.24,-0.24 -0.36,-0.533333 -0.36,-0.88 l 0,-16 c 0,-0.346649 0.12,-0.626649 0.36,-0.84 0.24,-0.239982 0.52,-0.359982 0.84,-0.36 0.34666,1.8e-5 0.62666,0.120018 0.84,0.36 0.24,0.213351 0.36,0.493351 0.36,0.84 l 0,16"
           style="font-family:Miso;-inkscape-font-specification:Miso"
           id="path5878" />
        <path
           inkscape:connector-curvature="0"
           d="m 186.86204,83.88447 c -0.72001,0 -1.40001,-0.133333 -2.04,-0.4 -0.61334,-0.266666 -1.16,-0.639999 -1.64,-1.12 -0.48,-0.479998 -0.85334,-1.026664 -1.12,-1.64 -0.26667,-0.639996 -0.4,-1.319996 -0.4,-2.04 l 0,-7.68 c 0,-0.719986 0.13333,-1.386652 0.4,-2 0.26666,-0.639984 0.64,-1.199984 1.12,-1.68 0.48,-0.479983 1.02666,-0.853316 1.64,-1.12 0.63999,-0.266649 1.31999,-0.399982 2.04,-0.4 l 4,0 c 0.34666,1.8e-5 0.62666,0.120018 0.84,0.36 0.23999,0.213351 0.35999,0.493351 0.36,0.84 l 0,19.84 c -1e-5,1.066663 -0.29334,2.026662 -0.88,2.88 -0.56001,0.879993 -1.33334,1.519993 -2.32,1.92 -0.98667,0.399992 -1.98667,0.493325 -3,0.28 -1.01334,-0.186675 -1.90667,-0.653341 -2.68,-1.4 -0.24,-0.240006 -0.36,-0.533339 -0.36,-0.88 0,-0.320005 0.12,-0.586672 0.36,-0.8 0.24,-0.240005 0.52,-0.360005 0.84,-0.36 0.34666,-5e-6 0.64,0.119995 0.88,0.36 0.4,0.399995 0.86666,0.653328 1.4,0.76 0.55999,0.106661 1.10666,0.05333 1.64,-0.16 0.53333,-0.213339 0.94666,-0.560005 1.24,-1.04 0.31999,-0.480004 0.47999,-1.000004 0.48,-1.56 l 0,-2.96 -2.8,0 m 0,-15.68 c -0.77334,1.6e-5 -1.44001,0.280015 -2,0.84 -0.53334,0.533348 -0.8,1.18668 -0.8,1.96 l 0,7.68 c 0,0.773338 0.26666,1.440004 0.8,2 0.55999,0.533336 1.22666,0.800002 2,0.8 l 2.8,0 0,-13.28 -2.8,0"
           style="font-family:Miso;-inkscape-font-specification:Miso"
           id="path5880" />
        <path
           inkscape:connector-curvature="0"
           d="m 198.73267,84.04447 c -0.34667,0 -0.64001,-0.106667 -0.88,-0.32 -0.21334,-0.24 -0.32001,-0.533333 -0.32,-0.88 l 0,-15.84 c -1e-5,-0.346649 0.10666,-0.626649 0.32,-0.84 0.23999,-0.239982 0.53333,-0.359982 0.88,-0.36 l 4,0 c 0.71999,1.8e-5 1.38665,0.133351 2,0.4 0.63999,0.266684 1.18665,0.640017 1.64,1.12 0.47998,0.480016 0.85332,1.040016 1.12,1.68 0.29332,0.613348 0.43998,1.280014 0.44,2 l 0,11.84 c -2e-5,0.346667 -0.12002,0.64 -0.36,0.88 -0.24002,0.213333 -0.52002,0.32 -0.84,0.32 -0.34668,0 -0.64002,-0.106667 -0.88,-0.32 -0.21335,-0.24 -0.32001,-0.533333 -0.32,-0.88 l 0,-11.84 c -1e-5,-0.77332 -0.28001,-1.426652 -0.84,-1.96 -0.53335,-0.559985 -1.18668,-0.839984 -1.96,-0.84 l -2.8,0 0,14.64 c -1e-5,0.346667 -0.12001,0.64 -0.36,0.88 -0.24001,0.213333 -0.52001,0.32 -0.84,0.32"
           style="font-family:Miso;-inkscape-font-specification:Miso"
           id="path5882" />
        <path
           inkscape:connector-curvature="0"
           d="m 222.09204,92.04447 c -0.34667,-8e-6 -0.64,-0.120008 -0.88,-0.36 -0.21334,-0.213341 -0.32,-0.493341 -0.32,-0.84 l 0,-23.84 c 0,-0.346649 0.10666,-0.626649 0.32,-0.84 0.24,-0.239982 0.53333,-0.359982 0.88,-0.36 l 4,0 c 0.71999,1.8e-5 1.38666,0.133351 2,0.4 0.63999,0.266684 1.18666,0.640017 1.64,1.12 0.47999,0.480016 0.85332,1.040016 1.12,1.68 0.29332,0.613348 0.43999,1.280014 0.44,2 l 0,7.68 c -10e-6,0.720004 -0.14668,1.400004 -0.44,2.04 -0.26668,0.613336 -0.64001,1.160002 -1.12,1.64 -0.45334,0.480001 -1.00001,0.853334 -1.64,1.12 -0.61334,0.266667 -1.28001,0.4 -2,0.4 l -2.8,0 0,6.96 c 0,0.346659 -0.12,0.626659 -0.36,0.84 -0.24,0.239992 -0.52,0.359992 -0.84,0.36 m 6.8,-21.04 c -1e-5,-0.77332 -0.28001,-1.426652 -0.84,-1.96 -0.53334,-0.559985 -1.18667,-0.839984 -1.96,-0.84 l -2.8,0 0,13.28 2.8,0 c 0.77333,2e-6 1.42666,-0.266664 1.96,-0.8 0.55999,-0.559996 0.83999,-1.226662 0.84,-2 l 0,-7.68"
           style="font-family:Miso;-inkscape-font-specification:Miso"
           id="path5884" />
        <path
           inkscape:connector-curvature="0"
           d="m 237.63892,84.04447 c -0.34667,0 -0.64001,-0.106667 -0.88,-0.32 -0.21334,-0.24 -0.32001,-0.533333 -0.32,-0.88 l 0,-15.84 c -1e-5,-0.346649 0.10666,-0.626649 0.32,-0.84 0.23999,-0.239982 0.53333,-0.359982 0.88,-0.36 l 4,0 c 0.90665,1.8e-5 1.77332,0.226685 2.6,0.68 0.29332,0.186684 0.47998,0.440017 0.56,0.76 0.08,0.29335 0.04,0.586683 -0.12,0.88 -0.16001,0.293349 -0.40001,0.493349 -0.72,0.6 -0.32001,0.08002 -0.62668,0.02668 -0.92,-0.16 -0.45335,-0.239984 -0.92001,-0.359984 -1.4,-0.36 l -2.8,0 0,14.64 c -1e-5,0.346667 -0.12001,0.64 -0.36,0.88 -0.21334,0.213333 -0.49334,0.32 -0.84,0.32"
           style="font-family:Miso;-inkscape-font-specification:Miso"
           id="path5886" />
        <path
           inkscape:connector-curvature="0"
           d="m 252.72142,84.04447 c -0.72001,0 -1.40001,-0.133333 -2.04,-0.4 -0.61334,-0.266666 -1.16001,-0.639999 -1.64,-1.12 -0.48001,-0.479998 -0.85334,-1.026664 -1.12,-1.64 -0.26667,-0.639996 -0.40001,-1.319996 -0.4,-2.04 l 0,-8 c -1e-5,-0.719986 0.13333,-1.386652 0.4,-2 0.26666,-0.639984 0.63999,-1.199984 1.12,-1.68 0.47999,-0.479983 1.02666,-0.853316 1.64,-1.12 0.63999,-0.266649 1.31999,-0.399982 2.04,-0.4 0.71999,1.8e-5 1.38665,0.133351 2,0.4 0.63999,0.266684 1.18665,0.640017 1.64,1.12 0.47998,0.480016 0.85332,1.040016 1.12,1.68 0.29332,0.613348 0.43998,1.280014 0.44,2 l 0,8 c -2e-5,0.720004 -0.14668,1.400004 -0.44,2.04 -0.26668,0.613336 -0.64002,1.160002 -1.12,1.64 -0.45335,0.480001 -1.00001,0.853334 -1.64,1.12 -0.61335,0.266667 -1.28001,0.4 -2,0.4 m 0,-16 c -0.77334,1.6e-5 -1.44001,0.280016 -2,0.84 -0.53334,0.533348 -0.80001,1.18668 -0.8,1.96 l 0,8 c -1e-5,0.773338 0.26666,1.440004 0.8,2 0.55999,0.533336 1.22666,0.800002 2,0.8 0.77332,2e-6 1.42665,-0.266664 1.96,-0.8 0.55999,-0.559996 0.83999,-1.226662 0.84,-2 l 0,-8 c -1e-5,-0.77332 -0.28001,-1.426652 -0.84,-1.96 -0.53335,-0.559984 -1.18668,-0.839984 -1.96,-0.84"
           style="font-family:Miso;-inkscape-font-specification:Miso"
           id="path5888" />
        <path
           inkscape:connector-curvature="0"
           d="m 264.59954,62.44447 c -0.45334,2.1e-5 -0.84,-0.146645 -1.16,-0.44 -0.29334,-0.319978 -0.44,-0.706644 -0.44,-1.16 0,-0.45331 0.14666,-0.826643 0.44,-1.12 0.32,-0.319976 0.70666,-0.479975 1.16,-0.48 0.45333,2.5e-5 0.82666,0.160024 1.12,0.48 0.32,0.293357 0.48,0.66669 0.48,1.12 0,0.453356 -0.16,0.840022 -0.48,1.16 -0.29334,0.293355 -0.66667,0.440021 -1.12,0.44 m -4,29.6 c -0.32,-8e-6 -0.6,-0.120008 -0.84,-0.36 -0.24,-0.213341 -0.36,-0.493341 -0.36,-0.84 0,-0.346673 0.12,-0.640006 0.36,-0.88 0.24,-0.213339 0.52,-0.320006 0.84,-0.32 0.77333,-6e-6 1.42667,-0.280005 1.96,-0.84 0.56,-0.533338 0.84,-1.18667 0.84,-1.96 l 0,-20 c 0,-0.346649 0.12,-0.626649 0.36,-0.84 0.24,-0.239982 0.52,-0.359982 0.84,-0.36 0.34666,1.8e-5 0.62666,0.120018 0.84,0.36 0.24,0.213351 0.36,0.493351 0.36,0.84 l 0,20 c 0,0.719996 -0.13334,1.386662 -0.4,2 -0.26667,0.639994 -0.64,1.199994 -1.12,1.68 -0.48,0.479993 -1.04,0.853326 -1.68,1.12 -0.61333,0.266659 -1.28,0.399992 -2,0.4"
           style="font-family:Miso;-inkscape-font-specification:Miso"
           id="path5890" />
        <path
           inkscape:connector-curvature="0"
           d="m 274.15892,83.64447 c -0.98668,-0.399999 -1.77334,-1.026665 -2.36,-1.88 -0.56001,-0.879997 -0.84001,-1.853329 -0.84,-2.92 l 0,-8 c -10e-6,-0.719986 0.13333,-1.386652 0.4,-2 0.26666,-0.639984 0.63999,-1.199984 1.12,-1.68 0.47999,-0.479983 1.02666,-0.853316 1.64,-1.12 0.63999,-0.266649 1.31999,-0.399982 2.04,-0.4 0.71999,1.8e-5 1.38665,0.133351 2,0.4 0.63999,0.266684 1.19999,0.640017 1.68,1.12 0.47998,0.480016 0.85332,1.040016 1.12,1.68 0.26665,0.613348 0.39998,1.280014 0.4,2 l 0,4 c -2e-5,0.346675 -0.12002,0.640008 -0.36,0.88 -0.21335,0.213341 -0.49335,0.320008 -0.84,0.32 l -6.8,0 0,2.8 c -1e-5,0.560004 0.14666,1.080004 0.44,1.56 0.31999,0.480003 0.74666,0.826669 1.28,1.04 0.53332,0.213336 1.06666,0.266669 1.6,0.16 0.55999,-0.106664 1.03999,-0.359997 1.44,-0.76 0.23999,-0.239997 0.51999,-0.359997 0.84,-0.36 0.34665,3e-6 0.63999,0.120003 0.88,0.36 0.23998,0.213336 0.35998,0.493336 0.36,0.84 -2e-5,0.320002 -0.12002,0.600002 -0.36,0.84 -0.74668,0.746667 -1.64001,1.226667 -2.68,1.44 -1.01334,0.186666 -2.01334,0.08 -3,-0.32 m 2,-15.6 c -0.77334,1.6e-5 -1.44001,0.280016 -2,0.84 -0.53334,0.533348 -0.80001,1.18668 -0.8,1.96 l 0,2.8 5.6,0 0,-2.8 c -10e-6,-0.77332 -0.28001,-1.426652 -0.84,-1.96 -0.53335,-0.559984 -1.18668,-0.839984 -1.96,-0.84"
           style="font-family:Miso;-inkscape-font-specification:Miso"
           id="path5892" />
        <path
           inkscape:connector-curvature="0"
           d="m 288.92454,83.64447 c -0.98667,-0.399999 -1.77334,-1.026665 -2.36,-1.88 -0.56,-0.879997 -0.84,-1.853329 -0.84,-2.92 l 0,-8 c 0,-1.066653 0.28,-2.026652 0.84,-2.88 0.58666,-0.879983 1.37333,-1.519983 2.36,-1.92 0.98666,-0.399982 1.98666,-0.493315 3,-0.28 1.01332,0.186685 1.90666,0.653351 2.68,1.4 0.21332,0.240016 0.31999,0.53335 0.32,0.88 -10e-6,0.320016 -0.10668,0.600015 -0.32,0.84 -0.24001,0.213348 -0.53334,0.320015 -0.88,0.32 -0.32001,1.5e-5 -0.60001,-0.106652 -0.84,-0.32 -0.40001,-0.426651 -0.88001,-0.693318 -1.44,-0.8 -0.53334,-0.106651 -1.06667,-0.05332 -1.6,0.16 -0.53334,0.213349 -0.96,0.560015 -1.28,1.04 -0.29334,0.480014 -0.44,1.000014 -0.44,1.56 l 0,8 c 0,0.560004 0.14666,1.080004 0.44,1.56 0.32,0.480003 0.74666,0.826669 1.28,1.04 0.53333,0.213336 1.06666,0.266669 1.6,0.16 0.55999,-0.106664 1.03999,-0.359997 1.44,-0.76 0.23999,-0.239997 0.51999,-0.359997 0.84,-0.36 0.34666,3e-6 0.63999,0.120003 0.88,0.36 0.21332,0.213336 0.31999,0.493336 0.32,0.84 -10e-6,0.320002 -0.10668,0.600002 -0.32,0.84 -0.77334,0.746667 -1.66668,1.226667 -2.68,1.44 -1.01334,0.186666 -2.01334,0.08 -3,-0.32"
           style="font-family:Miso;-inkscape-font-specification:Miso"
           id="path5894" />
        <path
           inkscape:connector-curvature="0"
           d="m 298.76954,68.20447 c -0.34667,1.6e-5 -0.64,-0.106651 -0.88,-0.32 -0.21333,-0.239984 -0.32,-0.533317 -0.32,-0.88 0,-0.346649 0.10667,-0.626649 0.32,-0.84 0.24,-0.239982 0.53333,-0.359982 0.88,-0.36 l 2,0 0,-6.96 c 0,-0.346641 0.10666,-0.626641 0.32,-0.84 0.24,-0.239974 0.53333,-0.359974 0.88,-0.36 0.34666,2.6e-5 0.62666,0.120026 0.84,0.36 0.23999,0.213359 0.35999,0.493359 0.36,0.84 l 0,6.96 2.8,0 c 0.34666,1.8e-5 0.62666,0.120018 0.84,0.36 0.23999,0.213351 0.35999,0.493351 0.36,0.84 -10e-6,0.346683 -0.12001,0.640016 -0.36,0.88 -0.21334,0.213349 -0.49334,0.320016 -0.84,0.32 l -2.8,0 0,10.64 c -10e-6,0.773338 0.26666,1.440004 0.8,2 0.55999,0.533336 1.22666,0.800002 2,0.8 0.34666,2e-6 0.62666,0.120002 0.84,0.36 0.23999,0.213335 0.35999,0.493335 0.36,0.84 -10e-6,0.346667 -0.12001,0.64 -0.36,0.88 -0.21334,0.213333 -0.49334,0.32 -0.84,0.32 -0.72001,0 -1.40001,-0.133333 -2.04,-0.4 -0.61334,-0.266666 -1.16001,-0.639999 -1.64,-1.12 -0.48,-0.479998 -0.85334,-1.026664 -1.12,-1.64 -0.26667,-0.639996 -0.4,-1.319996 -0.4,-2.04 l 0,-10.64 -2,0 0,0"
           style="font-family:Miso;-inkscape-font-specification:Miso"
           id="path5896" />
      </g>
    </g>
  </g>
  <g
     inkscape:groupmode="layer"
     id="layer3"
     inkscape:label="system map">
    <rect
       style="opacity:0.5;fill:#ffffff;fill-opacity:1;stroke:#797979;stroke-width:4.04215384;stroke-linecap:butt;stroke-linejoin:miter;stroke-miterlimit:4;stroke-opacity:1;stroke-dasharray:4.04215417, 8.08430834;stroke-dashoffset:0"
       id="rect5744"
       width="363.79388"
       height="215.58156"
       x="48.536324"
       y="715.74799" />
    <rect
       style="fill:#ffffff;fill-opacity:1;stroke:#000000;stroke-width:7.08661417;stroke-linecap:butt;stroke-linejoin:miter;stroke-miterlimit:4;stroke-opacity:1;stroke-dasharray:none;stroke-dashoffset:0"
       id="rect3155"
       width="761.81104"
       height="442.91336"
       x="425.19684"
       y="255.11809" />
    <g
       id="g5890"
       transform="translate(-20.798737,-9.2977834)">
      <path
         inkscape:connector-curvature="0"
         id="path4112"
         d="m 92.843366,780.79789 0,31.88976 53.149604,0"
         style="fill:none;stroke:#000000;stroke-width:10.62992096;stroke-linecap:butt;stroke-linejoin:miter;stroke-miterlimit:4;stroke-opacity:1;stroke-dasharray:none;marker-end:url(#TriangleOutS)" />
      <path
         style="opacity:0.5;fill:none;stroke:#000000;stroke-width:10.62992096;stroke-linecap:butt;stroke-linejoin:miter;stroke-miterlimit:4;stroke-opacity:1;stroke-dasharray:none;marker-end:url(#TriangleOutS)"
         d="m 92.843366,859.38056 0,31.88976 53.149604,0"
         id="path4932"
         inkscape:connector-curvature="0" />
      <text
         sodipodi:linespacing="125%"
         id="text5702"
         y="757.72455"
         x="90.753716"
         style="font-size:11px;font-style:normal;font-variant:normal;font-weight:800;font-stretch:normal;text-align:start;line-height:125%;letter-spacing:0px;word-spacing:0px;writing-mode:lr-tb;text-anchor:start;fill:#000000;fill-opacity:1;stroke:none;font-family:TitilliumText25L;-inkscape-font-specification:TitilliumText25L Ultra-Bold"
         xml:space="preserve"><tspan
           y="757.72455"
           x="90.753716"
           id="tspan5704"
           sodipodi:role="line">Material flow</tspan></text>
      <path
         style="fill:none;stroke:#000000;stroke-width:3.54330707;stroke-linecap:butt;stroke-linejoin:miter;stroke-miterlimit:4;stroke-opacity:1;stroke-dasharray:3.54330709, 3.54330709;stroke-dashoffset:0;marker-end:url(#DiamondS)"
         d="m 223.66724,779.76268 0,31.88977 53.1496,0"
         id="path4934"
         inkscape:connector-curvature="0" />
      <path
         inkscape:connector-curvature="0"
         id="path4936"
         d="m 223.66724,858.34535 0,31.88977 53.1496,0"
         style="opacity:0.5;fill:none;stroke:#000000;stroke-width:3.54330707;stroke-linecap:butt;stroke-linejoin:miter;stroke-miterlimit:4;stroke-opacity:1;stroke-dasharray:3.54330709, 3.54330709;stroke-dashoffset:0;marker-end:url(#DiamondS)" />
      <text
         xml:space="preserve"
         style="font-size:11px;font-style:normal;font-variant:normal;font-weight:800;font-stretch:normal;text-align:start;line-height:125%;letter-spacing:0px;word-spacing:0px;writing-mode:lr-tb;text-anchor:start;fill:#000000;fill-opacity:1;stroke:none;font-family:TitilliumText25L;-inkscape-font-specification:TitilliumText25L Ultra-Bold"
         x="211.85667"
         y="757.72455"
         id="text5706"
         sodipodi:linespacing="125%"><tspan
           sodipodi:role="line"
           id="tspan5708"
           x="211.85667"
           y="757.72455">Information flow</tspan></text>
      <path
         inkscape:connector-curvature="0"
         id="path4938"
         d="m 352.42522,779.6906 0,31.88977 53.14961,0"
         style="fill:none;stroke:#000000;stroke-width:5.31496048;stroke-linecap:butt;stroke-linejoin:miter;stroke-miterlimit:4;stroke-opacity:1;stroke-dasharray:5.31496063, 10.62992126;stroke-dashoffset:0;marker-end:url(#DotS)" />
      <path
         style="opacity:0.5;fill:none;stroke:#000000;stroke-width:5.31496048;stroke-linecap:butt;stroke-linejoin:miter;stroke-miterlimit:4;stroke-opacity:1;stroke-dasharray:5.31496063, 10.62992126;stroke-dashoffset:0;marker-end:url(#DotS)"
         d="m 352.42522,858.27327 0,31.88977 53.14961,0"
         id="path4940"
         inkscape:connector-curvature="0" />
      <text
         sodipodi:linespacing="125%"
         id="text5710"
         y="757.72455"
         x="347.03046"
         style="font-size:11px;font-style:normal;font-variant:normal;font-weight:800;font-stretch:normal;text-align:start;line-height:125%;letter-spacing:0px;word-spacing:0px;writing-mode:lr-tb;text-anchor:start;fill:#000000;fill-opacity:1;stroke:none;font-family:TitilliumText25L;-inkscape-font-specification:TitilliumText25L Ultra-Bold"
         xml:space="preserve"><tspan
           y="757.72455"
           x="347.03046"
           id="tspan5712"
           sodipodi:role="line">Financial flow</tspan></text>
      <text
         xml:space="preserve"
         style="font-size:10px;font-style:normal;font-variant:normal;font-weight:normal;font-stretch:normal;text-align:start;line-height:125%;letter-spacing:0px;word-spacing:0px;writing-mode:lr-tb;text-anchor:start;fill:#000000;fill-opacity:1;stroke:none;font-family:TitilliumText25L;-inkscape-font-specification:TitilliumText25L"
         x="102.5121"
         y="835.72455"
         id="text5854"
         sodipodi:linespacing="125%"><tspan
           y="835.72455"
           x="102.5121"
           id="tspan5866"
           sodipodi:role="line">Core flow</tspan></text>
      <text
         sodipodi:linespacing="125%"
         id="text5858"
         y="835.72455"
         x="231.86479"
         style="font-size:10px;font-style:normal;font-variant:normal;font-weight:normal;font-stretch:normal;text-align:start;line-height:125%;letter-spacing:0px;word-spacing:0px;writing-mode:lr-tb;text-anchor:start;fill:#000000;fill-opacity:1;stroke:none;font-family:TitilliumText25L;-inkscape-font-specification:TitilliumText25L"
         xml:space="preserve"><tspan
           y="835.72455"
           x="231.86479"
           id="tspan5868"
           sodipodi:role="line">Core flow</tspan></text>
      <text
         xml:space="preserve"
         style="font-size:10px;font-style:normal;font-variant:normal;font-weight:normal;font-stretch:normal;text-align:start;line-height:125%;letter-spacing:0px;word-spacing:0px;writing-mode:lr-tb;text-anchor:start;fill:#000000;fill-opacity:1;stroke:none;font-family:TitilliumText25L;-inkscape-font-specification:TitilliumText25L"
         x="360.38943"
         y="835.72455"
         id="text5862"
         sodipodi:linespacing="125%"><tspan
           y="835.72455"
           x="360.38943"
           id="tspan5870"
           sodipodi:role="line">Core flow</tspan></text>
      <text
         sodipodi:linespacing="125%"
         id="text5872"
         y="915.72455"
         x="87.502647"
         style="font-size:10px;font-style:normal;font-variant:normal;font-weight:normal;font-stretch:normal;text-align:start;line-height:125%;letter-spacing:0px;word-spacing:0px;writing-mode:lr-tb;text-anchor:start;fill:#000000;fill-opacity:1;stroke:none;font-family:TitilliumText25L;-inkscape-font-specification:TitilliumText25L"
         xml:space="preserve"><tspan
           y="915.72455"
           x="87.502647"
           id="tspan5884"
           sodipodi:role="line">Back-office flow</tspan></text>
      <text
         xml:space="preserve"
         style="font-size:10px;font-style:normal;font-variant:normal;font-weight:normal;font-stretch:normal;text-align:start;line-height:125%;letter-spacing:0px;word-spacing:0px;writing-mode:lr-tb;text-anchor:start;fill:#000000;fill-opacity:1;stroke:none;font-family:TitilliumText25L;-inkscape-font-specification:TitilliumText25L"
         x="216.85535"
         y="915.72455"
         id="text5876"
         sodipodi:linespacing="125%"><tspan
           y="915.72455"
           x="216.85535"
           id="tspan5886"
           sodipodi:role="line">Back-office flow</tspan></text>
      <text
         sodipodi:linespacing="125%"
         id="text5880"
         y="915.72455"
         x="345.37997"
         style="font-size:10px;font-style:normal;font-variant:normal;font-weight:normal;font-stretch:normal;text-align:start;line-height:125%;letter-spacing:0px;word-spacing:0px;writing-mode:lr-tb;text-anchor:start;fill:#000000;fill-opacity:1;stroke:none;font-family:TitilliumText25L;-inkscape-font-specification:TitilliumText25L"
         xml:space="preserve"><tspan
           y="915.72455"
           x="345.37997"
           id="tspan5888"
           sodipodi:role="line">Back-office flow</tspan></text>
    </g>
  </g>
  <g
     inkscape:groupmode="layer"
     id="layer2"
     inkscape:label="Editable text"
     style="display:inline">
    <text
       sodipodi:linespacing="125%"
       id="text25285"
       y="1008.9292"
       x="119.67056"
       style="font-size:14px;font-style:normal;font-variant:normal;font-weight:300;font-stretch:normal;text-align:start;line-height:125%;letter-spacing:0px;word-spacing:0px;writing-mode:lr-tb;text-anchor:start;fill:#000000;fill-opacity:1;stroke:none;font-family:TitilliumText25L;-inkscape-font-specification:TitilliumText25L Light"
       xml:space="preserve"><tspan
         sodipodi:role="line"
         id="tspan25287"
         style="font-size:14px;font-style:normal;font-variant:normal;font-weight:300;font-stretch:normal;text-align:start;line-height:125%;writing-mode:lr-tb;text-anchor:start;font-family:TitilliumText25L;-inkscape-font-specification:TitilliumText25L Light"
         x="119.67056"
         y="1008.9292">Name Surname - ...</tspan></text>
    <text
       xml:space="preserve"
       style="font-size:14px;font-style:normal;font-variant:normal;font-weight:300;font-stretch:normal;text-align:start;line-height:125%;letter-spacing:0px;word-spacing:0px;writing-mode:lr-tb;text-anchor:start;fill:#000000;fill-opacity:1;stroke:none;font-family:TitilliumText25L;-inkscape-font-specification:TitilliumText25L Light"
       x="88.58268"
       y="973.49603"
       id="text25289"
       sodipodi:linespacing="125%"><tspan
         style="font-size:14px;font-style:normal;font-variant:normal;font-weight:300;font-stretch:normal;text-align:start;line-height:125%;writing-mode:lr-tb;text-anchor:start;font-family:TitilliumText25L;-inkscape-font-specification:TitilliumText25L Light"
         id="tspan25291"
         sodipodi:role="line"
         x="88.58268"
         y="973.49603">Name of the project</tspan></text>
    <text
       sodipodi:linespacing="125%"
       id="text25293"
       y="973.49603"
       x="440.89307"
       style="font-size:14px;font-style:normal;font-variant:normal;font-weight:300;font-stretch:normal;text-align:start;line-height:125%;letter-spacing:0px;word-spacing:0px;writing-mode:lr-tb;text-anchor:start;fill:#000000;fill-opacity:1;stroke:none;font-family:TitilliumText25L;-inkscape-font-specification:TitilliumText25L Light"
       xml:space="preserve"><tspan
         y="973.49603"
         x="440.89307"
         sodipodi:role="line"
         id="tspan25295"
         style="font-size:14px;font-style:normal;font-variant:normal;font-weight:300;font-stretch:normal;text-align:start;line-height:125%;writing-mode:lr-tb;text-anchor:start;font-family:TitilliumText25L;-inkscape-font-specification:TitilliumText25L Light">http://www.google.com</tspan></text>
    <text
       xml:space="preserve"
       style="font-size:14px;font-style:normal;font-variant:normal;font-weight:300;font-stretch:normal;text-align:start;line-height:125%;letter-spacing:0px;word-spacing:0px;writing-mode:lr-tb;text-anchor:start;fill:#000000;fill-opacity:1;stroke:none;font-family:TitilliumText25L;-inkscape-font-specification:TitilliumText25L Light"
       x="493.81128"
       y="1008.9292"
       id="text25297"
       sodipodi:linespacing="125%"><tspan
         y="1008.9292"
         x="493.81128"
         style="font-size:14px;font-style:normal;font-variant:normal;font-weight:300;font-stretch:normal;text-align:start;line-height:125%;writing-mode:lr-tb;text-anchor:start;font-family:TitilliumText25L;-inkscape-font-specification:TitilliumText25L Light"
         id="tspan25299"
         sodipodi:role="line">Community / Place / Organization</tspan></text>
  </g>
</svg>
